<?xml version="1.0" standalone="no"?>
<!DOCTYPE svg PUBLIC "-//W3C//DTD SVG 20010904//EN"
 "http://www.w3.org/TR/2001/REC-SVG-20010904/DTD/svg10.dtd">
<svg version="1.0" xmlns="http://www.w3.org/2000/svg"
 width="128.000000pt" height="128.000000pt" viewBox="0 0 128.000000 128.000000"
 preserveAspectRatio="xMidYMid meet">
<metadata>
Created by potrace 1.11, written by Peter Selinger 2001-2013
</metadata>
<g transform="translate(0.000000,128.000000) scale(0.100000,-0.100000)"
fill="#000000" stroke="none">
<path d="M114 1255 c-52 -26 -81 -57 -102 -110 -10 -23 -12 -149 -10 -515 l3
-485 24 -43 c25 -43 53 -67 104 -89 20 -9 153 -12 505 -13 l477 0 53 26 c39
19 59 38 80 72 l27 47 2 489 3 488 -27 50 c-20 37 -41 58 -77 79 l-50 28 -481
1 -480 0 -51 -25z"/>
</g>
</svg>
